# xmcd CD database file
#
# Track frame offsets:
#	150
#	19442
#	40995
#	60395
#	89042
#	113955
#	127145
#	149247
#	183805
#	204147
#	225280
#	252859
#	267745
#
# Disc length: 3850 seconds
#
# Revision: 1
# Processed by: cddbd v1.4PL0 Copyright (c) Steve Scherf et al.
# Submitted via: CDex 1.50beta10
#
DISCID=c10f080d
DTITLE=Woodshed - The Fires of Spring
DYEAR=1994
DGENRE=Blues
TTITLE0=On My Back (Slide)
TTITLE1=Everytime I Hear Sirens
TTITLE2=Into My Soul
TTITLE3=Sittin' On  A Fence
TTITLE4=Idiot Boy
TTITLE5=Riff Song
TTITLE6=Shake It
TTITLE7=Just Admit It
TTITLE8=Nothing's Plenty
TTITLE9=Different Kind Of Light
TTITLE10=It's Wherever You Be
TTITLE11=I Can't Recall
TTITLE12=What's Said
EXTD=YEAR: 1994
EXTT0=
EXTT1=
EXTT2=
EXTT3=
EXTT4=
EXTT5=
EXTT6=
EXTT7=
EXTT8=
EXTT9=
EXTT10=
EXTT11=
EXTT12=
PLAYORDER=
